<!-- Generated by IcoMoon.io -->
<svg version="1.1" xmlns="http://www.w3.org/2000/svg" width="1024" height="1024" viewBox="0 0 1024 1024">
<title></title>
<g id="icomoon-ignore">
</g>
<path fill="#000" d="M256.219 320h543.562c53.467 0 96.219 42.963 96.219 95.961v224.078c0 53.009-43.079 95.961-96.219 95.961h-543.562c-53.467 0-96.219-42.963-96.219-95.961v-224.078c0-53.009 43.079-95.961 96.219-95.961zM255.826 352c-35.25 0-63.826 28.806-63.826 63.745v224.511c0 35.205 28.875 63.745 63.826 63.745h544.348c35.25 0 63.826-28.806 63.826-63.745v-224.511c0-35.205-28.875-63.745-63.826-63.745h-544.348zM384 544h-96v96h-32v-160c0-35.593 28.724-64 64.156-64h31.688c35.551 0 64.156 28.654 64.156 64v160h-32v-96zM319.967 448c-17.655 0-31.967 14.204-31.967 32v32h96v-32c0-17.673-14.165-32-31.967-32h-32.067zM448 480v-64h95.844c35.551 0 64.156 28.654 64.156 64 0 35.593-28.724 64-64.156 64h-63.844v96h-32v-160zM480 448v64h64.033c17.655 0 31.967-14.204 31.967-32 0-17.673-14.165-32-31.967-32h-64.033zM640 480v-64h95.844c35.551 0 64.156 28.654 64.156 64 0 35.593-28.724 64-64.156 64h-63.844v96h-32v-160zM672 448v64h64.033c17.655 0 31.967-14.204 31.967-32 0-17.673-14.165-32-31.967-32h-64.033z"></path>
</svg>
