<svg width="739" height="420" xmlns="http://www.w3.org/2000/svg">
 <title/>

 <g>
  <title>background</title>
  <rect fill="none" id="canvas_background" height="422" width="741" y="-1" x="-1"/>
 </g>
 <g>
  <title>Layer 1</title>
  <g id="icomoon-ignore"/>
  <path id="svg_1" d="m98.219,2l543.562,0c53.467,0 96.219,42.963 96.219,95.961l0,224.078c0,53.009 -43.079,95.961 -96.219,95.961l-543.562,0c-53.467,0 -96.219,-42.963 -96.219,-95.961l0,-224.078c0,-53.009 43.079,-95.961 96.219,-95.961zm-0.393,32c-35.25,0 -63.826,28.806 -63.826,63.745l0,224.511c0,35.205 28.875,63.745 63.826,63.745l544.348,0c35.25,0 63.826,-28.806 63.826,-63.745l0,-224.511c0,-35.205 -28.875,-63.745 -63.826,-63.745l-544.348,0zm128.174,192l-96,0l0,96l-32,0l0,-160c0,-35.593 28.724,-64 64.156,-64l31.688,0c35.551,0 64.156,28.654 64.156,64l0,160l-32,0l0,-96zm-64.033,-96c-17.655,0 -31.967,14.204 -31.967,32l0,32l96,0l0,-32c0,-17.673 -14.165,-32 -31.967,-32l-32.067,0l0.001,0zm128.033,32l0,-64l95.844,0c35.551,0 64.156,28.654 64.156,64c0,35.593 -28.724,64 -64.156,64l-63.844,0l0,96l-32,0l0,-160zm32,-32l0,64l64.033,0c17.655,0 31.967,-14.204 31.967,-32c0,-17.673 -14.165,-32 -31.967,-32l-64.033,0zm160,32l0,-64l95.844,0c35.551,0 64.156,28.654 64.156,64c0,35.593 -28.724,64 -64.156,64l-63.844,0l0,96l-32,0l0,-160zm32,-32l0,64l64.033,0c17.655,0 31.967,-14.204 31.967,-32c0,-17.673 -14.165,-32 -31.967,-32l-64.033,0z" fill="#000"/>
 </g>
</svg>